<svg width="960" height="640" viewBox="0 0 960 640" fill="none" xmlns="http://www.w3.org/2000/svg">
  <rect width="960" height="640" rx="32" fill="#F8FAFC"/>
  <rect x="80" y="76" width="800" height="488" rx="24" fill="white" stroke="#DCE6F2"/>
  <rect x="120" y="118" width="232" height="404" rx="18" fill="#0F172A"/>
  <rect x="390" y="124" width="210" height="124" rx="16" fill="#EAF2FF"/>
  <rect x="630" y="124" width="210" height="124" rx="16" fill="#E6FBFF"/>
  <rect x="390" y="284" width="450" height="36" rx="18" fill="#E2E8F0"/>
  <rect x="390" y="348" width="390" height="36" rx="18" fill="#E2E8F0"/>
  <rect x="390" y="412" width="430" height="36" rx="18" fill="#E2E8F0"/>
  <circle cx="170" cy="166" r="28" fill="url(#g)"/>
  <rect x="120" y="238" width="180" height="18" rx="9" fill="#334155"/>
  <rect x="120" y="282" width="150" height="18" rx="9" fill="#334155"/>
  <rect x="120" y="326" width="190" height="18" rx="9" fill="#334155"/>
  <defs><linearGradient id="g" x1="142" y1="194" x2="198" y2="138"><stop stop-color="#0057FF"/><stop offset="1" stop-color="#06B6D4"/></linearGradient></defs>
</svg>
