<?xml version="1.0" encoding="UTF-8"?>
<svg version="1.1" xmlns="http://www.w3.org/2000/svg" width="1774" height="887">
<path d="M0 0 C585.42 0 1170.84 0 1774 0 C1774 292.71 1774 585.42 1774 887 C1188.58 887 603.16 887 0 887 C0 594.29 0 301.58 0 0 Z " fill="#FDFDFD" transform="translate(0,0)"/>
<path d="M0 0 C37.29 0 74.58 0 113 0 C113 38.94 113 77.88 113 118 C146.66 118 180.32 118 215 118 C215 79.06 215 40.12 215 0 C252.29 0 289.58 0 328 0 C328 92.73 328 185.46 328 281 C290.71 281 253.42 281 215 281 C215 248 215 215 215 181 C181.34 181 147.68 181 113 181 C113 214 113 247 113 281 C75.71 281 38.42 281 0 281 C0 188.27 0 95.54 0 0 Z " fill="#017FF0" transform="translate(185,301)"/>
<path d="M0 0 C14.52 0 29.04 0 44 0 C44 22.77 44 45.54 44 69 C67.76 69 91.52 69 116 69 C116 46.23 116 23.46 116 0 C130.52 0 145.04 0 160 0 C160 58.08 160 116.16 160 176 C145.48 176 130.96 176 116 176 C116 152.57 116 129.14 116 105 C92.24 105 68.48 105 44 105 C44 128.1 44 151.2 44 175 C29.48 175 14.96 175 0 175 C0 117.25 0 59.5 0 0 Z " fill="#060E26" transform="translate(871,319)"/>
<path d="M0 0 C3.17582998 3.08761248 5.69949062 6.57646954 8.25 10.1875 C8.91 9.506875 9.57 8.82625 10.25 8.125 C11.24655361 7.14232596 12.24696553 6.16355799 13.25 5.1875 C13.80816406 4.63320313 14.36632813 4.07890625 14.94140625 3.5078125 C26.65529795 -7.49688743 38.61595173 -9.3047486 53.98828125 -9.08984375 C64.24805769 -8.72400819 72.1990817 -4.99362729 80.25 1.1875 C81.0853125 1.80625 81.920625 2.425 82.78125 3.0625 C91.96792037 10.97001374 95.85704616 23.52277188 97.25 35.1875 C97.37932619 38.11558356 97.37689019 41.03796444 97.36352539 43.96850586 C97.36367142 44.81808868 97.36381744 45.66767151 97.3639679 46.54299927 C97.36327554 49.32947411 97.35551507 52.1158807 97.34765625 54.90234375 C97.34578966 56.84290022 97.34436689 58.78345717 97.34336853 60.72401428 C97.33956233 65.81537187 97.32974832 70.90670063 97.31866455 75.99804688 C97.30660447 82.11549535 97.30203916 88.23295349 97.29621124 94.35041046 C97.28653549 103.62946031 97.26736566 112.90844701 97.25 122.1875 C84.05 122.1875 70.85 122.1875 57.25 122.1875 C57.21132812 113.23109375 57.21132812 113.23109375 57.171875 104.09375 C57.14669664 100.3020409 57.12035614 96.51041078 57.08984375 92.71875 C57.04156577 86.70572652 56.99749965 80.69288596 56.97900391 74.6796875 C56.96381549 69.82949591 56.92933106 64.9797841 56.88169098 60.12980652 C56.86689972 58.28317952 56.85896028 56.43648402 56.85811615 54.58979797 C56.85573791 51.99489713 56.82859061 49.40131304 56.79589844 46.80664062 C56.8009288 46.0499408 56.80595917 45.29324097 56.81114197 44.51361084 C56.68207426 37.85478211 54.61969786 32.49643637 49.8125 27.8125 C44.05283626 24.16003031 39.01960381 23.32938121 32.25 24.1875 C26.76137422 26.14394657 21.82829358 30.15117714 19.13320923 35.33598328 C17.98967445 39.02798337 17.94205805 42.54682108 17.93115234 46.37426758 C17.92110672 47.18454407 17.9110611 47.99482056 17.90071106 48.82965088 C17.86992007 51.49710406 17.85285534 54.16445704 17.8359375 56.83203125 C17.81722256 58.68577433 17.7976489 60.53950892 17.7772522 62.39323425 C17.72595942 67.2642618 17.68631839 72.13531695 17.64910889 77.00646973 C17.60200433 82.85530492 17.54041869 88.70400342 17.48126221 94.55272675 C17.39308473 103.43092924 17.32329545 112.30910598 17.25 121.1875 C4.05 121.1875 -9.15 121.1875 -22.75 121.1875 C-22.77578125 115.28875 -22.8015625 109.39 -22.828125 103.3125 C-22.85330373 99.56636331 -22.8796445 95.82030654 -22.91015625 92.07421875 C-22.95843198 86.13362364 -23.00249894 80.1932136 -23.02099609 74.25244141 C-23.03618586 69.46060175 -23.07067262 64.66924759 -23.11830902 59.87762451 C-23.1330989 58.05332672 -23.14103964 56.2289596 -23.14188385 54.40460205 C-23.14426252 51.84082825 -23.17141302 49.27838643 -23.20410156 46.71484375 C-23.1990712 45.96749466 -23.19404083 45.22014557 -23.18885803 44.45014954 C-23.31855741 37.83717102 -25.41953588 32.51796412 -30.125 27.8125 C-35.74820005 24.3314714 -41.23540629 23.31520694 -47.75 24.1875 C-53.96833298 26.04854231 -57.69022523 29.52757328 -60.75 35.1875 C-61.97910121 38.87480362 -61.92643031 42.3053445 -61.95532227 46.1472168 C-61.96522186 46.95720123 -61.97512146 47.76718567 -61.98532104 48.60171509 C-62.01691809 51.28001987 -62.0416864 53.95834239 -62.06640625 56.63671875 C-62.08697733 58.49331626 -62.10797384 60.34990911 -62.12937927 62.20649719 C-62.18458407 67.09400656 -62.2340004 71.98155808 -62.28222656 76.86914062 C-62.34128336 82.73290877 -62.4075026 88.59659984 -62.47252655 94.46030426 C-62.57051605 103.36932245 -62.65938581 112.27838998 -62.75 121.1875 C-75.95 121.1875 -89.15 121.1875 -102.75 121.1875 C-102.75 78.9475 -102.75 36.7075 -102.75 -6.8125 C-90.21 -6.8125 -77.67 -6.8125 -64.75 -6.8125 C-64.75 -1.8625 -64.75 3.0875 -64.75 8.1875 C-64.09 8.1875 -63.43 8.1875 -62.75 8.1875 C-62.5128125 7.44628906 -62.275625 6.70507812 -62.03125 5.94140625 C-58.64358865 -1.34 -50.30902496 -5.45438006 -43.07421875 -8.12109375 C-27.91054635 -12.63196772 -12.92314984 -8.51753058 0 0 Z " fill="#060E26" transform="translate(1294.75,372.8125)"/>
<path d="M0 0 C13.30135919 10.26339443 21.05681825 24.88765206 23.69091797 41.35498047 C26.3637694 64.22833942 23.55604483 86.84833961 10 106 C1.925996 115.78608195 -9.45395311 122.10350454 -22 124 C-36.74333268 124.63650934 -49.36237095 124.03414137 -61.25390625 114.12109375 C-62.95803507 112.47204788 -64.57092689 110.89242446 -66 109 C-66 108.34 -66 107.68 -66 107 C-66.66 107 -67.32 107 -68 107 C-68 121.85 -68 136.7 -68 152 C-81.2 152 -94.4 152 -108 152 C-108 99.53 -108 47.06 -108 -7 C-94.8 -7 -81.6 -7 -68 -7 C-67.505 -0.07 -67.505 -0.07 -67 7 C-65.906875 5.80375 -64.81375 4.6075 -63.6875 3.375 C-45.26119434 -14.98630987 -20.89708583 -12.39657634 0 0 Z " fill="#060E25" transform="translate(1518,373)"/>
<path d="M0 0 C13.53 0 27.06 0 41 0 C41.01417969 5.80335938 41.02835938 11.60671875 41.04296875 17.5859375 C41.06304185 21.27740369 41.08457435 24.96874716 41.11132812 28.66015625 C41.153592 34.51062781 41.19064839 40.36078806 41.19555664 46.21142578 C41.19985649 50.93202391 41.22845828 55.65192338 41.27343178 60.37230301 C41.28635308 62.16703842 41.29073362 63.96185768 41.28615379 65.75663376 C41.13012541 79.64725291 41.13012541 79.64725291 47 92 C52.38389351 97.25570557 57.37637592 97.40425348 64.62890625 97.34765625 C70.82245383 96.70892423 74.99085259 93.95627511 79.375 89.6875 C81.44038515 86.27167071 82.81298094 82.80299737 84 79 C84.26012123 78.17625885 84.26012123 78.17625885 84.52549744 77.33587646 C85.17933116 74.11719034 85.17791612 70.93210317 85.20532227 67.66113281 C85.21522186 66.92903091 85.22512146 66.19692902 85.23532104 65.44264221 C85.2668382 63.02950239 85.29165464 60.61634291 85.31640625 58.203125 C85.33698423 56.52731828 85.35798093 54.85151666 85.37937927 53.17572021 C85.43451274 48.76991913 85.48396042 44.36407188 85.53222656 39.95819092 C85.5913489 34.66924502 85.65752879 29.38038329 85.72252655 24.09150696 C85.82042628 16.06105615 85.90935738 8.03055078 86 0 C99.2 0 112.4 0 126 0 C126 42.24 126 84.48 126 128 C113.13 128 100.26 128 87 128 C86.505 120.575 86.505 120.575 86 113 C84.576875 114.794375 84.576875 114.794375 83.125 116.625 C76.26693878 124.46873399 66.28718323 129.59887827 56 131 C39.76860883 132.06578564 26.30603912 128.98199937 13.75 118.0390625 C3.59392606 107.69063867 -0.35589318 93.06469037 -0.22705078 78.90014648 C-0.22734283 78.04051804 -0.22763489 77.18088959 -0.22793579 76.29521179 C-0.22655553 73.4870655 -0.21105646 70.67919301 -0.1953125 67.87109375 C-0.19157773 65.91097661 -0.18873295 63.95085759 -0.18673706 61.99073792 C-0.17913718 56.85662593 -0.15952031 51.72262889 -0.1373291 46.58856201 C-0.11317464 40.41518275 -0.10407233 34.24176484 -0.09242249 28.06835175 C-0.07309357 18.7121548 -0.03474557 9.35620957 0 0 Z " fill="#050D24" transform="translate(1049,366)"/>
<path d="M0 0 C13.2 0 26.4 0 40 0 C40 42.24 40 84.48 40 128 C26.8 128 13.6 128 0 128 C0 85.76 0 43.52 0 0 Z " fill="#050D25" transform="translate(1555,366)"/>
<path d="M0 0 C8.9049983 5.3907237 15.60379365 11.77200899 18.703125 21.88671875 C20.69483134 31.86369216 18.65330268 40.6994595 13.7578125 49.44140625 C8.85460251 56.64985676 1.30167794 60.98047433 -6.91796875 63.66796875 C-16.61666408 65.31345598 -24.85161014 63.80369775 -33.1328125 58.57421875 C-37.02046923 55.79834577 -40.1184342 52.93795114 -42.875 49 C-43.596875 48.030625 -44.31875 47.06125 -45.0625 46.0625 C-49.05362139 39.31888109 -48.49093948 30.61369629 -47.875 23 C-46.97773254 19.67425864 -45.66399283 16.93277514 -43.875 14 C-43.51277344 13.37609375 -43.15054688 12.7521875 -42.77734375 12.109375 C-33.65780637 -2.11092058 -15.09058727 -7.64146771 0 0 Z " fill="#04C2CE" transform="translate(738.875,437)"/>
<path d="M0 0 C5.71805808 4.58301284 9.42471358 10.12340757 11.4609375 17.171875 C11.5228125 18.22375 11.5846875 19.275625 11.6484375 20.359375 C11.72191406 21.22175781 11.79539062 22.08414062 11.87109375 22.97265625 C12.38301762 33.09299732 9.4206978 41.75165829 2.6484375 49.359375 C-6.07969131 56.60221994 -14.67247144 58.99364377 -25.91796875 58.703125 C-34.75259115 57.81865768 -41.41781594 53.87460229 -47.3515625 47.359375 C-54.20484985 38.34372726 -55.26753585 29.52497415 -54.3515625 18.359375 C-52.26714001 9.03564086 -46.52486151 2.39620769 -38.8515625 -3.015625 C-25.5108765 -11.25282709 -12.30817409 -8.5870982 0 0 Z " fill="#0354FC" transform="translate(662.3515625,360.640625)"/>
<path d="M0 0 C7.34216668 3.9230872 10.48300874 9.68299705 13.16870117 17.34106445 C14.57008994 22.56098038 14.57880124 27.62509844 14.5 33 C14.51546875 34.05896484 14.5309375 35.11792969 14.546875 36.20898438 C14.49799637 46.1252374 11.98074137 54.45743368 5.03515625 61.7421875 C-1.13941739 66.8856903 -8.28833715 68.18602549 -16.171875 67.8828125 C-22.92043232 66.82019436 -27.57691891 62.52960908 -31.75 57.3359375 C-36.74951655 49.74292174 -37.20357379 41.53035652 -37.25 32.75 C-37.270625 31.79416016 -37.29125 30.83832031 -37.3125 29.85351562 C-37.3609063 20.97701124 -35.63808118 13.48510147 -30 6.4375 C-21.47488939 -1.8685073 -11.63927387 -4.62001842 0 0 Z " fill="#FAFAFA" transform="translate(1487,397.5625)"/>
<path d="M0 0 C6.80712391 4.80564184 12.40203899 10.57038916 14 19 C14.7927297 30.16319366 13.9297075 38.17379733 7 47.1875 C0.87278799 53.69277403 -6.69044352 57.30891899 -15.625 57.625 C-24.6936203 57.13743977 -31.71144013 54.15969674 -38.3125 47.91796875 C-44.44986057 40.94240384 -46.52585291 31.6195733 -46.31640625 22.515625 C-45.77559486 18.21584064 -44.12120503 14.74001939 -42 11 C-41.649375 10.3709375 -41.29875 9.741875 -40.9375 9.09375 C-37.132717 3.06951025 -31.44889235 -0.35052975 -25.125 -3.375 C-16.19058095 -5.16188381 -8.10007607 -4.27138428 0 0 Z " fill="#78808B" transform="translate(1291,543)"/>
<path d="M0 0 C6.35853965 3.373919 12.31005921 9.11696454 15.20703125 15.7734375 C17.50499262 25.12376306 17.39008374 35.50343655 12.484375 43.921875 C11.74960938 44.95054687 11.74960938 44.95054687 11 46 C10.41605469 46.83402344 9.83210938 47.66804687 9.23046875 48.52734375 C4.2855564 54.00918178 -3.22804804 57.36068611 -10.45703125 58.5859375 C-19.21010268 58.85590174 -26.68999504 56.710222 -33.75 51.5 C-40.17370111 45.33568825 -43.26802961 37.93233667 -43.60180664 29.12207031 C-43.60946045 28.33928711 -43.61711426 27.55650391 -43.625 26.75 C-43.63587646 26.00588867 -43.64675293 25.26177734 -43.65795898 24.49511719 C-43.43248537 15.70652646 -39.39577116 9.69429443 -33.16015625 3.76171875 C-23.39798572 -4.19983443 -11.36231446 -5.14435497 0 0 Z " fill="#777F8B" transform="translate(1429,542)"/>
<path d="M0 0 C12 0 12 0 15.55859375 3.5234375 C16.55998187 5.11510875 17.51791196 6.73470936 18.4375 8.375 C19.51121507 10.11260136 20.58813128 11.84822804 21.66796875 13.58203125 C22.20856934 14.47615723 22.74916992 15.3702832 23.30615234 16.29150391 C26.06799965 20.70775268 29.15804989 24.87390396 32.25 29.0625 C33.34033885 30.55207158 34.42903206 32.04284996 35.515625 33.53515625 C36.20060059 34.46920288 36.20060059 34.46920288 36.89941406 35.42211914 C38 37 38 37 39 39 C39.33 26.13 39.66 13.26 40 0 C43.96 0 47.92 0 52 0 C52 19.47 52 38.94 52 59 C40 59 40 59 36.703125 56.140625 C35.84342922 54.87119409 35.02665279 53.57187069 34.25 52.25 C33.80301758 51.5691333 33.35603516 50.8882666 32.89550781 50.18676758 C31.9908192 48.80140243 31.10344399 47.40456541 30.234375 45.99658203 C28.48778956 43.17150771 26.61361248 40.4363284 24.75 37.6875 C24.12609375 36.73488281 23.5021875 35.78226563 22.859375 34.80078125 C20.41579078 31.12000417 17.84284284 27.53767159 15.25 23.9609375 C14 22 14 22 14 20 C13.34 20 12.68 20 12 20 C12 32.87 12 45.74 12 59 C8.04 59 4.08 59 0 59 C0 39.53 0 20.06 0 0 Z " fill="#79818C" transform="translate(1167,540)"/>
<path d="M0 0 C8.6199554 -0.32299599 15.7467216 0.39226867 22.3828125 6.28125 C25.99796758 10.12715966 28.33544404 12.84376999 29.0234375 18.1875 C26.94189815 18.32286022 24.85782544 18.41965465 22.7734375 18.5 C21.61328125 18.55800781 20.453125 18.61601563 19.2578125 18.67578125 C16.0234375 18.1875 16.0234375 18.1875 13.9140625 15.79296875 C13.29015625 14.93316406 12.66625 14.07335937 12.0234375 13.1875 C6.70599037 10.34166496 0.88832951 10.17840474 -4.9765625 11.1875 C-9.47815044 13.76690282 -13.16298812 17.25874284 -14.9765625 22.1875 C-15.7948288 29.66387 -16.35333187 37.46543397 -11.515625 43.66796875 C-7.41788535 47.71370663 -3.83622419 49.40323726 1.9609375 49.75 C8.30320999 49.48896135 12.69016124 46.67131021 16.9609375 42.125 C18.26453593 39.94225702 18.26453593 39.94225702 19.0234375 36.1875 C12.4234375 36.1875 5.8234375 36.1875 -0.9765625 36.1875 C-0.9765625 33.2175 -0.9765625 30.2475 -0.9765625 27.1875 C9.5834375 27.1875 20.1434375 27.1875 31.0234375 27.1875 C31.0234375 43.5555 31.0234375 43.5555 25.0703125 50.44921875 C18.0483063 57.09066167 11.73127379 60.35382571 2.0234375 60.6875 C-7.26561828 60.37786481 -13.48849705 57.40403008 -20.25390625 51.109375 C-26.41792276 44.23251305 -28.4874523 35.06647902 -28.2890625 26.02734375 C-27.4248468 18.17378354 -23.81319238 11.4605932 -17.9765625 6.1875 C-12.11076196 1.58804336 -7.41808343 0.46728085 0 0 Z " fill="#78808C" transform="translate(1497.9765625,539.8125)"/>
<path d="M0 0 C3.63 0 7.26 0 11 0 C11 7.92 11 15.84 11 24 C19.91 24 28.82 24 38 24 C38 16.08 38 8.16 38 0 C41.63 0 45.26 0 49 0 C49 19.47 49 38.94 49 59 C45.37 59 41.74 59 38 59 C38 50.75 38 42.5 38 34 C29.09 34 20.18 34 11 34 C11 42.25 11 50.5 11 59 C7.37 59 3.74 59 0 59 C0 39.53 0 20.06 0 0 Z " fill="#757D89" transform="translate(1089,540)"/>
<path d="M0 0 C6.3472254 2.94978108 11.12202958 6.63551985 14.3515625 12.94140625 C14.8465625 14.92140625 14.8465625 14.92140625 15.3515625 16.94140625 C11.0615625 16.94140625 6.7715625 16.94140625 2.3515625 16.94140625 C1.6915625 15.62140625 1.0315625 14.30140625 0.3515625 12.94140625 C-2.10548512 11.70850424 -2.10548512 11.70850424 -4.6484375 10.94140625 C-5.3084375 10.61140625 -5.9684375 10.28140625 -6.6484375 9.94140625 C-12.17885802 9.43638282 -17.05874274 9.20333368 -22.1484375 11.56640625 C-27.54368595 16.69189228 -29.73995732 21.38742973 -29.9609375 28.69140625 C-29.89950897 33.89747397 -28.67999101 37.70701054 -25.6484375 41.94140625 C-20.31283522 47.01673525 -15.71423904 47.28204387 -8.60546875 47.23046875 C-4.43253745 46.8225468 -2.70639319 45.75794439 0.3515625 42.94140625 C1.0115625 41.95140625 1.6715625 40.96140625 2.3515625 39.94140625 C5.390625 39.6484375 5.390625 39.6484375 8.9765625 39.75390625 C10.16507813 39.78097656 11.35359375 39.80804687 12.578125 39.8359375 C13.49335937 39.87074219 14.40859375 39.90554688 15.3515625 39.94140625 C12.87918383 48.01633109 9.22366693 52.20138041 1.8515625 56.37890625 C-6.59377784 60.28723373 -15.32987113 60.45211439 -24.0859375 57.31640625 C-33.62007986 52.83067042 -38.31598496 46.16127968 -41.9609375 36.44140625 C-43.8025823 27.06575999 -42.51951412 18.7137205 -37.10546875 10.640625 C-27.57636491 -0.93821742 -14.28833249 -4.14575814 0 0 Z " fill="#78808B" transform="translate(1045.6484375,541.05859375)"/>
<path d="M0 0 C4.78566554 3.49197953 9.59446478 8.50274276 10.921875 14.40234375 C11.51386357 21.74300204 9.96013216 26.43231189 5.734375 32.58984375 C0.62511368 37.69910507 -3.81805359 39.62768783 -11.078125 39.90234375 C-17.32421197 39.6660479 -22.03995432 38.30842005 -26.60546875 33.94140625 C-31.62238661 28.21194063 -32.54117788 23.90995966 -32.38671875 16.44140625 C-31.75737761 10.24359102 -29.23130792 6.20411558 -24.703125 2.02734375 C-17.34216156 -3.71171249 -8.17378335 -4.59366624 0 0 Z " fill="#081028" transform="translate(1586.078125,311.59765625)"/>
<path d="M0 0 C12.21 0 24.42 0 37 0 C37 3.3 37 6.6 37 10 C28.75 10 20.5 10 12 10 C12 14.62 12 19.24 12 24 C19.26 24 26.52 24 34 24 C34 27.3 34 30.6 34 34 C26.74 34 19.48 34 12 34 C12 39.28 12 44.56 12 50 C20.25 50 28.5 50 37 50 C37 52.97 37 55.94 37 59 C24.79 59 12.58 59 0 59 C0 39.53 0 20.06 0 0 Z " fill="#78808B" transform="translate(939,540)"/>
<path d="M0 0 C6.18396794 -0.39381551 10.2142729 1.17495077 14.89453125 5.23046875 C19.63465667 11.18601095 20.74264584 16.76467133 19.89453125 24.23046875 C18.08233951 30.61973907 15.33162187 34.49246895 9.89453125 38.23046875 C9.27578125 38.66359375 8.65703125 39.09671875 8.01953125 39.54296875 C2.57867117 41.30324701 -3.004126 40.54773295 -8.2109375 38.421875 C-12.32485579 35.83477174 -14.96418629 31.51303366 -17.10546875 27.23046875 C-18.40349586 12.0620948 -18.40349586 12.0620948 -13.4609375 5.6796875 C-9.25391046 1.18168453 -6.02974441 0.66002768 0 0 Z " fill="#FAFAFA" transform="translate(1274.10546875,549.76953125)"/>
<path d="M0 0 C5.77147516 -0.28511778 9.10962617 0.2195293 13.609375 4.18359375 C18.61607884 9.60752291 20.09549166 14.27363862 19.921875 21.5546875 C19.22477595 27.41903322 16.99790245 32.32275777 12.484375 36.18359375 C6.57016756 40.29782501 0.66305598 39.75399392 -6.390625 39.18359375 C-11.38977596 36.94259504 -13.68621551 33.89126954 -16.390625 29.18359375 C-18.31250402 23.41795668 -18.45413863 16.05022364 -16.265625 10.30859375 C-13.52508113 5.74102064 -10.85441543 1.96752707 -5.640625 0.30859375 C-3.75899618 0.23622341 -1.87749162 0.14418645 0 0 Z " fill="#FAFAFB" transform="translate(1414.390625,549.81640625)"/>
<path d="M0 0 C3.96 0 7.92 0 12 0 C18.02678571 10.84821429 18.02678571 10.84821429 19.625 14.75 C21.23175901 18.72685556 21.23175901 18.72685556 25 25 C28.96 16.75 32.92 8.5 37 0 C41.29 0 45.58 0 50 0 C48.70418737 3.23953157 47.47610773 6.14251788 45.86328125 9.1875 C45.45392334 9.96134033 45.04456543 10.73518066 44.62280273 11.5324707 C44.19040283 12.34675537 43.75800293 13.16104004 43.3125 14 C42.86914307 14.85231201 42.42578613 15.70462402 41.96899414 16.58276367 C40.04215371 20.26766765 38.13038257 23.90249807 35.8203125 27.36328125 C29.48157491 37.29221668 29.92820231 47.56365316 30 59 C26.37 59 22.74 59 19 59 C19.13664062 57.81792969 19.27328125 56.63585937 19.4140625 55.41796875 C20.49800781 36.89369196 11.6035298 22.59289797 2.71858215 7.00074768 C0 2.2024312 0 2.2024312 0 0 Z " fill="#777F8A" transform="translate(1548,540)"/>
<path d="M0 0 C14.52 0 29.04 0 44 0 C44 2.97 44 5.94 44 9 C43.67 9.33 43.34 9.66 43 10 C37.72 10 32.44 10 27 10 C27 26.17 27 42.34 27 59 C23.04 59 19.08 59 15 59 C15 42.83 15 26.66 15 10 C10.05 10 5.1 10 0 10 C0 6.7 0 3.4 0 0 Z " fill="#79818C" transform="translate(871,540)"/>
<path d="M0 0 C3.63 0 7.26 0 11 0 C11 16.5 11 33 11 50 C17.93 50 24.86 50 32 50 C32 52.97 32 55.94 32 59 C21.44 59 10.88 59 0 59 C0 39.53 0 20.06 0 0 Z " fill="#767F8A" transform="translate(1332,540)"/>
<path d="M0 0 C33.99 0 67.98 0 103 0 C103.4375 45.3125 103.4375 45.3125 103.56811523 59.6262207 C103.6113629 63.85604769 103.6113629 63.85604769 103.65589905 68.08586121 C103.67513478 69.97154539 103.6924534 71.85724971 103.70826721 73.7429657 C103.73257499 76.59734554 103.76294304 79.45160258 103.79467773 82.3059082 C103.80333312 83.56849819 103.80333312 83.56849819 103.81216335 84.85659504 C103.85406987 88.150354 103.9513408 90.8540224 105 94 C104.72428861 96.00875442 104.39764263 98.01178687 104 100 C104.99942627 99.83846436 105.99885254 99.67692871 107.02856445 99.51049805 C112.98159719 98.66371959 118.97997701 98.81402692 124.98022461 98.81469727 C127.19208599 98.81249543 129.40345993 98.79425281 131.61523438 98.77539062 C133.02864414 98.7724588 134.44205626 98.77047259 135.85546875 98.76953125 C137.13059326 98.76542236 138.40571777 98.76131348 139.71948242 98.75708008 C143 99 143 99 147 101 C132.15 101 117.3 101 102 101 C102 68 102 35 102 1 C68.34 1 34.68 1 0 1 C0 0.67 0 0.34 0 0 Z " fill="#2CB4E8" transform="translate(298,481)"/>
<path d="M0 0 C0.33 0 0.66 0 1 0 C1 27.72 1 55.44 1 84 C-10.88 84 -22.76 84 -35 84 C-35 83.67 -35 83.34 -35 83 C-24.11 83 -13.22 83 -2 83 C-2.02320313 77.67875 -2.04640625 72.3575 -2.0703125 66.875 C-2.08053778 63.49348467 -2.09016617 60.11198855 -2.09765625 56.73046875 C-2.10958783 51.36926285 -2.1236668 46.00812561 -2.15087891 40.64697266 C-2.17269191 36.32219696 -2.18458641 31.99749494 -2.18975449 27.67266846 C-2.1934351 26.02694541 -2.20062228 24.38122615 -2.21146011 22.73553467 C-2.22608768 20.42125902 -2.22797328 18.10728357 -2.22705078 15.79296875 C-2.231492 14.4783667 -2.23593323 13.16376465 -2.24050903 11.80932617 C-1.9750509 7.60484124 -1.13567134 4.04697396 0 0 Z " fill="#272A3D" transform="translate(1231,410)"/>
<path d="M0 0 C0.33 0 0.66 0 1 0 C1 28.05 1 56.1 1 85 C1.66 85 2.32 85 3 85 C2.67 87.64 2.34 90.28 2 93 C1.67 93 1.34 93 1 93 C-0.14189905 88.46015324 -0.13428982 84.00286216 -0.11352539 79.35424805 C-0.11367142 78.4952037 -0.11381744 77.63615936 -0.1139679 76.75108337 C-0.11327312 73.92126918 -0.10550111 71.0915214 -0.09765625 68.26171875 C-0.09579052 66.29588354 -0.09436735 64.33004787 -0.09336853 62.36421204 C-0.08955553 57.19720164 -0.07973562 52.03021948 -0.06866455 46.86322021 C-0.05842427 41.58785382 -0.0538653 36.31248285 -0.04882812 31.03710938 C-0.03811227 20.69139386 -0.02105045 10.34569928 0 0 Z " fill="#2F3246" transform="translate(1049,366)"/>
<path d="M0 0 C14.19 0 28.38 0 43 0 C43 0.33 43 0.66 43 1 C41.89487061 1.02505615 40.78974121 1.0501123 39.65112305 1.07592773 C35.55285956 1.17006509 31.45476306 1.27027041 27.35668945 1.37231445 C25.58264063 1.41563934 23.80855077 1.45731619 22.03442383 1.49731445 C19.48506295 1.5550762 16.9359082 1.61875362 14.38671875 1.68359375 C13.59287277 1.70030624 12.79902679 1.71701874 11.98112488 1.73423767 C8.75316923 1.82117718 6.08248901 1.97250366 3 3 C3 3.66 3 4.32 3 5 C2.34 5 1.68 5 1 5 C0.67 5.99 0.34 6.98 0 8 C0 5.36 0 2.72 0 0 Z " fill="#0E1329" transform="translate(987,319)"/>
<path d="M0 0 C0.79921875 0.00902344 1.5984375 0.01804687 2.421875 0.02734375 C3.02515625 0.03894531 3.6284375 0.05054688 4.25 0.0625 C4.25 0.3925 4.25 0.7225 4.25 1.0625 C3.115625 1.18625 1.98125 1.31 0.8125 1.4375 C-0.9509375 1.746875 -0.9509375 1.746875 -2.75 2.0625 C-3.08 2.7225 -3.41 3.3825 -3.75 4.0625 C-5.45703125 4.80859375 -5.45703125 4.80859375 -7.5625 5.5 C-10.74078239 6.61839021 -13.18403178 7.81727781 -15.75 10.0625 C-16.08 9.0725 -16.41 8.0825 -16.75 7.0625 C-15.50627811 6.07537122 -14.25472782 5.09810095 -13 4.125 C-12.30390625 3.57972656 -11.6078125 3.03445313 -10.890625 2.47265625 C-7.30870802 0.11303576 -4.21889241 -0.06204254 0 0 Z " fill="#292F44" transform="translate(1575.75,308.9375)"/>
<path d="M0 0 C0.72703125 0.13277344 1.4540625 0.26554687 2.203125 0.40234375 C9.45797728 1.67659345 16.65194992 2.50491861 24 3 C24 3.33 24 3.66 24 4 C7.1070615 4.3690205 7.1070615 4.3690205 0 2 C0 1.34 0 0.68 0 0 Z " fill="#252A3D" transform="translate(1081,493)"/>
<path d="M0 0 C0.33 0 0.66 0 1 0 C1.103125 0.9075 1.20625 1.815 1.3125 2.75 C2.00414949 6.01961575 2.82134921 7.53717737 5 10 C3.625 12.5 3.625 12.5 2 15 C1.34 15 0.68 15 0 15 C0 10.05 0 5.1 0 0 Z " fill="#BFC1C9" transform="translate(1230,366)"/>
<path d="M0 0 C0.5859375 1.87109375 0.5859375 1.87109375 1 4 C0.54625 4.680625 0.0925 5.36125 -0.375 6.0625 C-2.81680531 10.47653268 -2.74750553 15.02847103 -3 20 C-3.33 20 -3.66 20 -4 20 C-4.4731614 12.11397658 -4.17981006 6.79219135 0 0 Z " fill="#2F3345" transform="translate(1558,317)"/>
<path d="M0 0 C0.33 0 0.66 0 1 0 C1 4.95 1 9.9 1 15 C1.66 15 2.32 15 3 15 C2.67 17.64 2.34 20.28 2 23 C1.67 23 1.34 23 1 23 C-0.23402862 18.22907044 -0.11265112 13.57530554 -0.0625 8.6875 C-0.05798828 7.85154297 -0.05347656 7.01558594 -0.04882812 6.15429688 C-0.03710548 4.10283351 -0.01917203 2.05140727 0 0 Z " fill="#3B3E50" transform="translate(1049,436)"/>
<path d="M0 0 C0.33 0 0.66 0 1 0 C1.33 2.97 1.66 5.94 2 9 C2.99 9.33 3.98 9.66 5 10 C3.35 11.65 1.7 13.3 0 15 C0 10.05 0 5.1 0 0 Z " fill="#D8D9DE" transform="translate(1450,366)"/>
<path d="M0 0 C0.33 0.99 0.66 1.98 1 3 C-2.3 2.67 -5.6 2.34 -9 2 C-5.5647952 -0.29013653 -4.014669 -0.17842973 0 0 Z " fill="#1F65F5" transform="translate(638,416)"/>
<path d="M0 0 C0.66 0.66 1.32 1.32 2 2 C0.02 2.99 0.02 2.99 -2 4 C-2 4.66 -2 5.32 -2 6 C-3.65 6.33 -5.3 6.66 -7 7 C-4.78071806 4.09197539 -3.07030857 2.04687238 0 0 Z " fill="#1B2237" transform="translate(1315,372)"/>
<path d="M0 0 C0.33 0.99 0.66 1.98 1 3 C-1.97 5.475 -1.97 5.475 -5 8 C-5.33 7.01 -5.66 6.02 -6 5 C-4.02 3.35 -2.04 1.7 0 0 Z " fill="#1C2237" transform="translate(1240,371)"/>
<path d="M0 0 C0.66 0.99 1.32 1.98 2 3 C-0.25 5.5625 -0.25 5.5625 -3 8 C-5.3125 7.8125 -5.3125 7.8125 -7 7 C-5.47005208 5.76302083 -3.94010417 4.52604167 -2.41015625 3.2890625 C-0.86733563 2.0333609 -0.86733563 2.0333609 0 0 Z " fill="#808893" transform="translate(1431,580)"/>
<path d="M0 0 C0.33 0.66 0.66 1.32 1 2 C0.0625 4.125 0.0625 4.125 -1 6 C-1.66 6 -2.32 6 -3 6 C-3.33 7.32 -3.66 8.64 -4 10 C-4.66 10 -5.32 10 -6 10 C-4.6302836 6.00499382 -2.74277578 3.19990508 0 0 Z " fill="#2EC8D4" transform="translate(700,444)"/>
<path d="M0 0 C0.66 0.99 1.32 1.98 2 3 C0.6875 5.9375 0.6875 5.9375 -1 9 C-1.99 9.33 -2.98 9.66 -4 10 C-2.66666667 6.66666667 -1.33333333 3.33333333 0 0 Z " fill="#8B939C" transform="translate(1580,550)"/>
<path d="M0 0 C0.66 0.33 1.32 0.66 2 1 C-1.5 5.875 -1.5 5.875 -6 7 C-4.02 4.69 -2.04 2.38 0 0 Z " fill="#EDEEF1" transform="translate(1321,399)"/>
</svg>
